<svg width="1200" height="630" viewBox="0 0 1200 630" fill="none" xmlns="http://www.w3.org/2000/svg">
  <defs>
    <linearGradient id="bg" x1="144" y1="54" x2="1023" y2="642" gradientUnits="userSpaceOnUse">
      <stop stop-color="#F9FCFF"/>
      <stop offset="1" stop-color="#E7F3FC"/>
    </linearGradient>
    <linearGradient id="panel" x1="94" y1="85" x2="796" y2="613" gradientUnits="userSpaceOnUse">
      <stop stop-color="white" stop-opacity="0.96"/>
      <stop offset="1" stop-color="white" stop-opacity="0.82"/>
    </linearGradient>
    <linearGradient id="inkFade" x1="862" y1="87" x2="1141" y2="579" gradientUnits="userSpaceOnUse">
      <stop stop-color="#5CB8FD" stop-opacity="0.22"/>
      <stop offset="1" stop-color="#162839" stop-opacity="0.05"/>
    </linearGradient>
    <filter id="shadow" x="53" y="67" width="718" height="522" filterUnits="userSpaceOnUse" color-interpolation-filters="sRGB">
      <feDropShadow dx="0" dy="24" stdDeviation="20" flood-color="#153248" flood-opacity="0.12"/>
    </filter>
  </defs>

  <rect width="1200" height="630" rx="32" fill="url(#bg)"/>
  <circle cx="1010" cy="128" r="174" fill="#5CB8FD" fill-opacity="0.08"/>
  <circle cx="1088" cy="510" r="194" fill="#162839" fill-opacity="0.05"/>
  <path d="M812 87H1144V543H812V87Z" fill="url(#inkFade)"/>

  <g filter="url(#shadow)">
    <rect x="93" y="87" width="638" height="456" rx="28" fill="url(#panel)"/>
    <rect x="93.8" y="87.8" width="636.4" height="454.4" rx="27.2" stroke="#D6E8F5" stroke-opacity="0.9" stroke-width="1.6"/>
  </g>

  <g transform="translate(150 132)">
    <rect x="0" y="0" width="116" height="116" rx="26" fill="white"/>
    <path d="M17 37C35 35 49 36 64 45V88C48 79 33 78 17 81V37Z" fill="#67CCF5"/>
    <path d="M99 37C81 35 67 36 52 45V88C68 79 83 78 99 81V37Z" fill="#1593BF"/>
    <path d="M64 45C69 42 74 41 82 45V88C76 85 70 85 64 88V45Z" fill="#EAF7FD"/>
    <path d="M16 37L10 35V88L17 81V37Z" fill="#ACE4FA"/>
    <path d="M99 37L106 35V88L99 81V37Z" fill="#78CDEB"/>
    <path d="M11 88H62" stroke="#79CEEC" stroke-width="4.5" stroke-linecap="round"/>
    <path d="M84 88H105" stroke="#4CAED8" stroke-width="4.5" stroke-linecap="round"/>
    <path d="M63 29L70 16H79L86 29V74C86 82 80 87 75 92C70 88 63 82 63 74V29Z" fill="#5E7890"/>
    <path d="M68 8H81V16H68V8Z" fill="#506A81"/>
    <path d="M67 4H82L87 8H61L67 4Z" fill="#5B7790"/>
    <path d="M68 4V0H80V4" stroke="#5B7790" stroke-width="3.5" stroke-linecap="round"/>
    <rect x="70" y="31" width="8" height="6" rx="1.6" fill="#F4F9FB"/>
    <rect x="70" y="45" width="8" height="11" rx="2" fill="#F4F9FB"/>
    <rect x="71" y="62" width="6" height="6" rx="1.5" fill="#F4F9FB"/>
    <path d="M86 50C95 54 99 60 100 68C101 76 97 84 89 92" stroke="#0E7598" stroke-width="8" stroke-linecap="round"/>
  </g>

  <text x="150" y="306" fill="#5C7790" font-family="Inter, Arial, sans-serif" font-size="20" font-weight="700" letter-spacing="3">AGENTIC POLICY SURVEILLANCE</text>
  <text x="150" y="376" fill="#162839" font-family="Manrope, Inter, Arial, sans-serif" font-size="58" font-weight="800">AI Education Policy Observatory</text>
  <text x="150" y="430" fill="#40515E" font-family="Inter, Arial, sans-serif" font-size="28" font-weight="500">Evidence-grounded tracking for AI use, assessment, privacy, and implementation.</text>

  <g transform="translate(150 468)">
    <rect width="174" height="40" rx="20" fill="#EAF5FC"/>
    <text x="24" y="26" fill="#0B6B8F" font-family="Inter, Arial, sans-serif" font-size="17" font-weight="700">State guidance</text>
    <rect x="188" width="190" height="40" rx="20" fill="#F0F6FA"/>
    <text x="212" y="26" fill="#29516A" font-family="Inter, Arial, sans-serif" font-size="17" font-weight="700">Evidence spans</text>
    <rect x="392" width="220" height="40" rx="20" fill="#EAF5FC"/>
    <text x="416" y="26" fill="#0B6B8F" font-family="Inter, Arial, sans-serif" font-size="17" font-weight="700">Selective audit routing</text>
  </g>
</svg>
